<?xml version="1.0" encoding="UTF-8" standalone="no"?>
<svg
   version="1.1"
   id="Capa_1"
   x="0px"
   y="0px"
   width="512px"
   height="512px"
   viewBox="0 0 569.613 569.614"
   style="enable-background:new 0 0 569.613 569.614;"
   xml:space="preserve"
   sodipodi:docname="io.frama.tractor.carburetor-symbolic.svg"
   inkscape:version="1.2.2 (b0a8486541, 2022-12-01)"
   xmlns:inkscape="http://www.inkscape.org/namespaces/inkscape"
   xmlns:sodipodi="http://sodipodi.sourceforge.net/DTD/sodipodi-0.dtd"
   xmlns="http://www.w3.org/2000/svg"
   xmlns:svg="http://www.w3.org/2000/svg"
   xmlns:rdf="http://www.w3.org/1999/02/22-rdf-syntax-ns#"
   xmlns:cc="http://creativecommons.org/ns#"
   xmlns:dc="http://purl.org/dc/elements/1.1/"><metadata
   id="metadata45"><rdf:RDF><cc:Work
       rdf:about=""><dc:format>image/svg+xml</dc:format><dc:type
         rdf:resource="http://purl.org/dc/dcmitype/StillImage" /></cc:Work></rdf:RDF></metadata><defs
   id="defs43">
	
	</defs><sodipodi:namedview
   pagecolor="#ffffff"
   bordercolor="#666666"
   borderopacity="1"
   objecttolerance="10"
   gridtolerance="10"
   guidetolerance="10"
   inkscape:pageopacity="0"
   inkscape:pageshadow="2"
   inkscape:window-width="1920"
   inkscape:window-height="1011"
   id="namedview41"
   showgrid="false"
   inkscape:zoom="0.98798671"
   inkscape:cx="-99.191618"
   inkscape:cy="329.45787"
   inkscape:window-x="0"
   inkscape:window-y="0"
   inkscape:window-maximized="1"
   inkscape:current-layer="Capa_1"
   inkscape:showpageshadow="0"
   inkscape:pagecheckerboard="1"
   inkscape:deskcolor="#d1d1d1"
   showguides="false" />
<path
   id="path4588"
   style="opacity:1;mix-blend-mode:normal;fill:#000000;fill-opacity:1;fill-rule:nonzero;stroke-width:1.11705"
   d="M 208.82436 0.015210335 C 208.07736 0.042693311 207.33253 0.10759709 206.59279 0.20859888 C 205.1133 0.41060243 203.65284 0.75738849 202.23394 1.2472475 C 200.81507 1.7371166 199.43779 2.3700306 198.1228 3.1420206 L 85.06873 69.537305 C 83.700105 70.341294 82.444233 71.26598 81.307431 72.290375 C 80.170651 73.31478 79.152682 74.43859 78.258845 75.640995 C 77.364998 76.843402 76.595348 78.12512 75.955566 79.463135 C 75.315783 80.801149 74.804805 82.195204 74.430187 83.626421 C 74.055557 85.057629 73.815774 86.522808 73.717474 88.004824 C 73.61917 89.486844 73.663195 90.988412 73.852194 92.478835 C 74.041224 93.969263 74.379415 95.448625 74.866941 96.905043 C 75.354455 98.361471 75.990677 99.790433 76.787789 101.17046 L 107.55395 154.43487 C 105.17352 157.70324 102.9099 160.99849 100.75493 164.3368 C 98.599937 167.67516 96.553756 171.05586 94.601264 174.49513 C 92.649269 177.9349 90.794058 181.42573 89.029935 184.99026 C 87.265813 188.55481 85.591158 192.19422 83.99966 195.92432 L 22.860633 196.16117 C 21.276397 196.16732 19.731505 196.33395 18.238864 196.6479 C 16.746215 196.96189 15.306959 197.42185 13.936512 198.01248 C 12.566056 198.60309 11.262464 199.32532 10.04484 200.16149 C 8.8272045 200.99763 7.6936399 201.94874 6.6594537 202.9993 C 5.6252778 204.04984 4.6917565 205.19869 3.8716167 206.43249 C 3.0514975 207.6663 2.3458735 208.98602 1.7704175 210.37197 C 1.1949719 211.75787 0.74944545 213.21086 0.44929133 214.71778 C 0.14912696 216.22471 -0.0066439819 217.78404 -0.0005 219.38083 L 0.479712 351.28051 C 0.48585598 352.81441 0.64300103 354.33373 0.94254076 355.81536 C 1.2420907 357.29703 1.6850653 358.73994 2.2614941 360.12858 C 2.8379329 361.51724 3.547755 362.85006 4.3844222 364.10499 C 5.22111 365.35989 6.1832757 366.53809 7.2635213 367.61858 C 8.3382679 368.69452 9.5070912 369.65117 10.751034 370.48247 C 11.994986 371.31378 13.316942 372.01977 14.69051 372.59019 C 16.06407 373.16064 17.492343 373.59629 18.955923 373.88958 C 20.419491 374.1829 21.915934 374.33503 23.429934 374.33503 L 23.51685 374.33503 L 84.718892 374.1047 C 86.326885 377.74714 88.031294 381.33702 89.831737 384.88014 C 91.63216 388.42322 93.529874 391.91582 95.520402 395.35571 C 97.510946 398.79562 99.595707 402.18553 101.77402 405.51839 C 103.95237 408.85131 106.22232 412.12874 108.58608 415.35078 L 78.174102 468.9281 C 77.418351 470.25992 76.80034 471.65117 76.32496 473.08487 C 75.849568 474.51855 75.519331 475.99252 75.329769 477.485 C 75.140262 478.97758 75.093366 480.48781 75.195049 481.99595 C 75.296732 483.5041 75.544029 485.00872 75.942529 486.48952 C 76.341774 487.96941 76.885325 489.39364 77.554824 490.74624 C 78.224334 492.09893 79.020903 493.38212 79.934155 494.57273 C 80.847366 495.76333 81.876119 496.86447 83.006643 497.85816 C 84.137137 498.85195 85.368504 499.73825 86.689717 500.50041 L 200.224 566.00698 C 202.02198 567.04337 203.90059 567.8074 205.81271 568.31243 C 207.72485 568.81757 209.67439 569.06426 211.60785 569.06426 C 213.59835 569.06426 215.57198 568.80139 217.48339 568.29287 C 219.39481 567.78435 221.2421 567.02865 222.97214 566.03957 C 224.7022 565.05038 226.3149 563.82871 227.76123 562.38692 C 229.20753 560.94513 230.48617 559.28186 231.54643 557.41531 L 261.96492 503.83365 C 265.91463 504.25472 269.86893 504.56805 273.82464 504.77234 C 277.48652 504.96153 281.14741 505.03744 284.8065 505.03744 L 284.8065 505.58718 C 288.46558 505.5836 292.12865 505.51112 295.79053 505.32209 C 299.74624 505.1178 303.69837 504.80446 307.64808 504.38339 L 338.06875 557.96506 C 339.12901 559.83159 340.40547 561.49489 341.85177 562.93666 C 343.2981 564.37845 344.9108 565.60014 346.64086 566.58932 C 348.3709 567.5784 350.21819 568.33411 352.12961 568.84262 C 354.04102 569.35114 356.01682 569.614 358.00732 569.614 C 359.94079 569.614 361.88815 569.36731 363.80029 568.86217 C 365.71241 568.35716 367.59102 567.59311 369.389 566.55672 L 482.92328 501.04798 C 484.24452 500.28582 485.47586 499.40159 486.60636 498.4079 C 487.73684 497.41413 488.76561 496.31307 489.67884 495.12247 C 490.59208 493.93186 491.39086 492.64868 492.06035 491.29599 C 492.72985 489.94339 493.27122 488.51912 493.67047 487.03927 C 494.06897 485.55857 494.31616 484.05385 494.41795 482.5457 C 494.51967 481.03756 494.47495 479.52733 494.2854 478.03475 C 494.09584 476.54227 493.76342 475.06831 493.28804 473.63461 C 492.81265 472.20093 492.19464 470.80966 491.4389 469.47785 L 461.02692 415.90053 C 463.39068 412.67847 465.66065 409.40104 467.83898 406.06813 C 470.01728 402.73525 472.10205 399.34538 474.0926 395.90546 C 476.08315 392.46558 477.98082 388.97295 479.78126 385.42988 C 481.5817 381.88678 483.28613 378.29684 484.89411 374.65445 L 546.09615 374.88478 L 546.18307 374.88478 C 547.69704 374.88478 549.19351 374.73265 550.65708 374.43933 C 552.12064 374.14602 553.55111 373.71038 554.92466 373.13993 C 556.29821 372.56951 557.61803 371.86352 558.86197 371.03221 C 560.1059 370.20093 561.27473 369.24428 562.34948 368.16833 C 563.42972 367.08785 564.39191 365.90967 565.22858 364.65474 C 566.06524 363.39979 566.77508 362.06698 567.35151 360.67832 C 567.92795 359.28965 568.37091 357.84676 568.67046 356.36511 C 568.97001 354.88349 569.12729 353.36415 569.13329 351.83025 L 569.6135 219.93058 C 569.61925 218.33379 569.46387 216.77445 569.16371 215.26752 C 568.86356 213.7606 568.41802 212.30764 567.84258 210.92171 C 567.26712 209.53577 566.5615 208.21603 565.74138 206.98224 C 564.92126 205.74844 563.98773 204.59957 562.95355 203.54905 C 561.91937 202.4985 560.78577 201.54741 559.56816 200.71123 C 558.35054 199.87506 557.04693 199.15284 555.67649 198.56223 C 554.30605 197.9716 552.86678 197.51162 551.37414 197.19764 C 549.88149 196.88368 548.33661 196.71691 546.75237 196.71091 L 485.61334 196.47407 C 484.02185 192.74395 482.34717 189.10453 480.58306 185.54001 C 478.81896 181.97546 476.9659 178.48466 475.01391 175.04488 C 473.06143 171.60562 471.01307 168.22489 468.85807 164.88655 C 466.70312 161.54819 464.43948 158.25302 462.05905 154.98462 L 492.82521 101.7202 C 493.62232 100.34018 494.25855 98.911204 494.74606 97.454788 C 495.23358 95.998357 495.57178 94.519005 495.76081 93.02858 C 495.94981 91.538155 495.99383 90.036587 495.89553 88.554569 C 495.79718 87.07255 495.55744 85.607382 495.18281 84.176166 C 494.80819 82.744947 494.29721 81.350881 493.65743 80.01288 C 493.01765 78.674865 492.24799 77.393147 491.35415 76.19074 C 490.46034 74.988333 489.44235 73.864525 488.30557 72.84012 C 487.16878 71.815725 485.91288 70.89104 484.54427 70.08705 L 371.4902 3.6917655 C 370.17521 2.9197858 368.79793 2.2868513 367.37906 1.7969924 C 365.96016 1.3071336 364.4997 0.96034741 363.02021 0.75834383 C 361.54073 0.55634033 360.0409 0.50165794 358.54403 0.59320306 C 357.04716 0.68477895 355.55401 0.9236974 354.08306 1.3146075 C 352.61282 1.7065214 351.19455 2.2378443 349.84806 2.903001 C 348.50155 3.5681475 347.22684 4.3659852 346.03896 5.2779862 C 344.85109 6.189977 343.74997 7.2180477 342.7557 8.3504738 C 341.76142 9.4829001 340.87268 10.720123 340.10693 12.046585 L 309.31035 65.369673 C 305.38289 64.926847 301.44556 64.591161 297.50061 64.363618 C 293.55567 64.136075 289.60269 64.015106 285.64959 64.002916 C 285.3685 64.001996 285.08761 64.024419 284.8065 64.024645 L 284.8065 63.4749 C 284.5254 63.47469 284.2445 63.454483 283.96341 63.455344 C 280.01031 63.467509 276.05732 63.586332 272.11239 63.813873 C 268.16744 64.041416 264.23011 64.377101 260.30265 64.819928 L 229.50824 11.49684 C 228.74249 10.170378 227.85158 8.9331551 226.8573 7.8007288 C 225.86302 6.6683027 224.76408 5.640232 223.57621 4.7282412 C 222.38833 3.8162503 221.11364 3.0205855 219.76711 2.355429 C 218.42062 1.6902723 217.00018 1.1567865 215.52994 0.76486255 C 214.05899 0.37396255 212.56584 0.13500329 211.06897 0.043458099 C 210.32054 -0.0023349738 209.57136 -0.012272641 208.82436 0.015210335 z M 284.8065 131.83449 A 152.9725 152.9725 0 0 1 437.77901 284.807 A 152.9725 152.9725 0 0 1 284.8065 437.77951 L 284.8065 354.33996 A 69.532959 69.532959 0 0 0 354.33946 284.807 A 69.532959 69.532959 0 0 0 284.8065 215.27404 L 284.8065 131.83449 z " />

</svg>
