<svg width="164" height="32" viewBox="0 0 164 32" fill="none" xmlns="http://www.w3.org/2000/svg">
<g id="Logo" clip-path="url(#clip0_34_2231)">
<g id="Logo_2">
<g id="Innodata®">
<path d="M44.4103 27.3566H40.2432V4.17383H44.4103V27.3566Z" fill="#10416A"/>
<path d="M62.0458 27.3566H58.1836V16.6399C58.1836 15.5076 57.9238 14.6584 57.4044 14.0923C56.8849 13.5149 56.2581 13.2261 55.5241 13.2261C54.519 13.2261 53.6381 13.6677 52.8815 14.5509C52.1248 15.434 51.7465 16.7644 51.7465 18.542V27.3566H47.8843V10.203H51.4077V14.1772C52.6387 11.29 54.3665 9.84638 56.5913 9.84638C58.0932 9.84638 59.375 10.3219 60.4366 11.273C61.5094 12.2241 62.0458 13.8942 62.0458 16.2832V27.3566Z" fill="#10416A"/>
<path d="M79.4611 27.3566H75.5989V16.6399C75.5989 15.5076 75.3391 14.6584 74.8197 14.0923C74.3002 13.5149 73.6734 13.2261 72.9394 13.2261C71.9343 13.2261 71.0534 13.6677 70.2968 14.5509C69.5401 15.434 69.1618 16.7644 69.1618 18.542V27.3566H65.2996V10.203H68.823V14.1772C70.054 11.29 71.7818 9.84638 74.0066 9.84638C75.5085 9.84638 76.7903 10.3219 77.8518 11.273C78.9247 12.2241 79.4611 13.8942 79.4611 16.2832V27.3566Z" fill="#10416A"/>
<path d="M89.406 27.7132C86.8764 27.7132 84.9453 26.8018 83.6127 24.9789C82.2801 23.1559 81.6138 21.0669 81.6138 18.7119C81.6138 16.1756 82.3479 14.064 83.816 12.377C85.2953 10.6899 87.2434 9.84638 89.6601 9.84638C91.9526 9.84638 93.8329 10.6673 95.301 12.309C96.7804 13.9508 97.5201 16.0851 97.5201 18.7119C97.5201 21.4179 96.7522 23.5975 95.2163 25.2506C93.6918 26.8924 91.755 27.7132 89.406 27.7132ZM89.5415 24.5203C92.139 24.5203 93.4377 22.5785 93.4377 18.6949C93.4377 16.9399 93.1271 15.5586 92.506 14.5509C91.8849 13.5318 90.9306 13.0223 89.6432 13.0223C88.3106 13.0223 87.3225 13.5488 86.6788 14.6018C86.035 15.6435 85.7132 17.0305 85.7132 18.7628C85.7132 20.631 86.052 22.0577 86.7296 23.0427C87.4184 24.0278 88.3558 24.5203 89.5415 24.5203Z" fill="#10416A"/>
<path d="M113.75 27.3566H110.141V23.8919C109.148 26.4395 107.465 27.7132 105.093 27.7132C102.993 27.7132 101.384 26.8357 100.266 25.0808C99.1477 23.3258 98.5887 21.1462 98.5887 18.542C98.5887 16.119 99.1703 14.0074 100.333 12.2071C101.497 10.4068 103.151 9.50671 105.297 9.50671C107.499 9.50671 109.029 10.5144 109.887 12.5298V4.17383H113.75V27.3566ZM109.887 17.2343C109.887 15.8416 109.554 14.7603 108.888 13.9904C108.233 13.2092 107.38 12.8185 106.33 12.8185C105.189 12.8185 104.297 13.3167 103.654 14.3131C103.01 15.3095 102.688 16.7984 102.688 18.7798C102.688 22.6068 103.885 24.5203 106.279 24.5203C107.228 24.5203 108.064 24.1127 108.786 23.2975C109.52 22.4709 109.887 21.4179 109.887 20.1385V17.2343Z" fill="#10416A"/>
<path d="M131.639 27.3566H127.963C127.636 26.3149 127.438 25.16 127.37 23.8919C126.343 26.4395 124.412 27.7132 121.577 27.7132C119.872 27.7132 118.5 27.215 117.461 26.2187C116.433 25.211 115.919 23.9485 115.919 22.4313C115.919 18.4911 119.369 16.521 126.269 16.521C126.54 16.521 126.907 16.5266 127.37 16.538V15.2472C127.37 13.4696 126.162 12.5808 123.745 12.5808C121.396 12.5808 120.064 13.4696 119.748 15.2472L116.461 14.7547C116.642 13.328 117.376 12.1562 118.663 11.239C119.951 10.3106 121.814 9.84638 124.254 9.84638C125.575 9.84638 126.653 9.95961 127.489 10.1861C128.325 10.4012 129.031 10.7748 129.606 11.307C130.182 11.8278 130.578 12.3996 130.792 13.0223C131.018 13.6337 131.131 14.6754 131.131 16.1473V23.8919C131.131 25.0128 131.3 26.1677 131.639 27.3566ZM127.37 18.627C122.379 18.627 119.883 19.8215 119.883 22.2105C119.883 22.9238 120.132 23.5352 120.628 24.0448C121.137 24.5429 121.899 24.792 122.915 24.792C124.383 24.792 125.49 24.3278 126.235 23.3994C126.992 22.4596 127.37 21.3953 127.37 20.2064V18.627Z" fill="#10416A"/>
<path d="M142.313 24.3335V27.3566C141.161 27.6057 140.269 27.7302 139.636 27.7302C138.597 27.7302 137.705 27.5264 136.96 27.1188C136.214 26.6999 135.667 26.1337 135.316 25.4204C134.978 24.6958 134.808 23.5862 134.808 22.0916V13.2092H132.674V10.203H135.029L135.384 5.73633L138.552 5.44761V10.203H141.991V13.2092H138.552V21.5821C138.552 22.6577 138.744 23.3937 139.128 23.79C139.523 24.175 140.263 24.3674 141.347 24.3674C141.652 24.3674 141.974 24.3561 142.313 24.3335Z" fill="#10416A"/>
<path d="M158.813 27.3566H155.137C154.81 26.3149 154.612 25.16 154.544 23.8919C153.517 26.4395 151.586 27.7132 148.751 27.7132C147.046 27.7132 145.674 27.215 144.635 26.2187C143.607 25.211 143.093 23.9485 143.093 22.4313C143.093 18.4911 146.543 16.521 153.443 16.521C153.714 16.521 154.081 16.5266 154.544 16.538V15.2472C154.544 13.4696 153.336 12.5808 150.919 12.5808C148.57 12.5808 147.238 13.4696 146.921 15.2472L143.635 14.7547C143.816 13.328 144.55 12.1562 145.837 11.239C147.125 10.3106 148.988 9.84638 151.427 9.84638C152.749 9.84638 153.827 9.95961 154.663 10.1861C155.499 10.4012 156.204 10.7748 156.78 11.307C157.356 11.8278 157.752 12.3996 157.966 13.0223C158.192 13.6337 158.305 14.6754 158.305 16.1473V23.8919C158.305 25.0128 158.474 26.1677 158.813 27.3566ZM154.544 18.627C149.553 18.627 147.057 19.8215 147.057 22.2105C147.057 22.9238 147.305 23.5352 147.802 24.0448C148.311 24.5429 149.073 24.792 150.089 24.792C151.557 24.792 152.664 24.3278 153.409 23.3994C154.166 22.4596 154.544 21.3953 154.544 20.2064V18.627Z" fill="#10416A"/>
<path d="M164 25.5033C164 26.0323 163.812 26.487 163.436 26.8674C163.06 27.2461 162.61 27.4354 162.084 27.4354C161.554 27.4354 161.101 27.2461 160.723 26.8674C160.346 26.487 160.157 26.0314 160.157 25.5006C160.157 24.9698 160.345 24.5151 160.721 24.1365C161.098 23.7578 161.554 23.5685 162.089 23.5685C162.615 23.5685 163.065 23.7578 163.439 24.1365C163.813 24.5151 164 24.9707 164 25.5033ZM163.656 25.5006C163.656 25.0568 163.501 24.6754 163.192 24.3566C162.885 24.0377 162.517 23.8783 162.087 23.8783C161.647 23.8783 161.273 24.0377 160.964 24.3566C160.655 24.6736 160.501 25.0549 160.501 25.5006C160.501 25.9499 160.655 26.333 160.964 26.65C161.275 26.9671 161.647 27.1256 162.081 27.1256C162.511 27.1256 162.881 26.9671 163.19 26.65C163.5 26.333 163.656 25.9499 163.656 25.5006ZM163.046 26.6147H162.547L162.187 25.7153H161.656V26.6147H161.181V24.3892H162.211C162.493 24.3892 162.703 24.4508 162.84 24.574C162.979 24.6972 163.049 24.8557 163.049 25.0495C163.049 25.3267 162.911 25.5223 162.637 25.6365L163.046 26.6147ZM161.656 25.362H162.143C162.42 25.362 162.558 25.256 162.558 25.0441C162.558 24.8412 162.432 24.7397 162.179 24.7397H161.656V25.362Z" fill="#10416A"/>
</g>
<path id="Shape" fill-rule="evenodd" clip-rule="evenodd" d="M11.2302 0.591056C11.2302 0.264625 11.4949 0 11.8213 0C12.1477 0 12.4123 0.264624 12.4123 0.591055V4.14814H14.1854V0.591055C14.1854 0.264625 14.45 0 14.7765 0C15.1029 0 15.3675 0.264624 15.3675 0.591055V4.14814H17.1407V0.591055C17.1407 0.264625 17.4053 0 17.7317 0C18.0582 0 18.3228 0.264624 18.3228 0.591055V4.14814H20.0959V0.591056C20.0959 0.264625 20.3605 0 20.687 0C21.0134 0 21.278 0.264625 21.278 0.591056V4.14814H24.5797C25.6998 4.14814 26.2598 4.14814 26.6877 4.36613C27.064 4.55787 27.37 4.86383 27.5617 5.24016C27.7797 5.66798 27.7797 6.22803 27.7797 7.34814V10.6667H31.3244C31.6517 10.6667 31.917 10.932 31.917 11.2593C31.917 11.5865 31.6517 11.8519 31.3244 11.8519H27.7797V13.6296H31.3244C31.6517 13.6296 31.917 13.8949 31.917 14.2222C31.917 14.5495 31.6517 14.8148 31.3244 14.8148H27.7797V16.5926H31.3244C31.6517 16.5926 31.917 16.8579 31.917 17.1852C31.917 17.5125 31.6517 17.7778 31.3244 17.7778H27.7797V19.5555H31.3244C31.6517 19.5555 31.917 19.8209 31.917 20.1481C31.917 20.4754 31.6517 20.7407 31.3244 20.7407H27.7797V24.6518C27.7797 25.772 27.7797 26.332 27.5617 26.7598C27.37 27.1362 27.064 27.4421 26.6877 27.6339C26.2598 27.8518 25.6998 27.8518 24.5797 27.8518H21.278V31.4089C21.278 31.7354 21.0134 32 20.687 32C20.3605 32 20.0959 31.7354 20.0959 31.4089V27.8518H18.3228V31.4089C18.3228 31.7354 18.0582 32 17.7317 32C17.4053 32 17.1407 31.7354 17.1407 31.4089V27.8518H15.3675V31.4089C15.3675 31.7354 15.1029 32 14.7765 32C14.45 32 14.1854 31.7354 14.1854 31.4089V27.8518H12.4123V31.4089C12.4123 31.7354 12.1477 32 11.8213 32C11.4949 32 11.2302 31.7354 11.2302 31.4089V27.8518H7.33749C6.21739 27.8518 5.65734 27.8518 5.22951 27.6339C4.85319 27.4421 4.54723 27.1362 4.35548 26.7598C4.13749 26.332 4.13749 25.772 4.13749 24.6518V20.7408H0.592592C0.265313 20.7408 0 20.4754 0 20.1482C0 19.8209 0.265313 19.5556 0.592592 19.5556H4.13749V17.7778H0.59259C0.265312 17.7778 0 17.5125 0 17.1852C0 16.8579 0.265312 16.5926 0.59259 16.5926H4.13749V14.8148H0.592592C0.265313 14.8148 0 14.5495 0 14.2222C0 13.8949 0.265313 13.6296 0.592592 13.6296H4.13749V11.8519H0.592593C0.265313 11.8519 0 11.5865 0 11.2593C0 10.932 0.265313 10.6667 0.592593 10.6667H4.13749V7.34814C4.13749 6.22803 4.13749 5.66798 4.35548 5.24016C4.54723 4.86383 4.85319 4.55787 5.22951 4.36613C5.65734 4.14814 6.21739 4.14814 7.33749 4.14814H11.2302V0.591056ZM11.528 7.11111C11.0371 7.11111 10.6391 7.50907 10.6391 7.99999C10.6391 8.49091 11.0371 8.88888 11.528 8.88888H14.4786C14.9696 8.88888 15.3675 8.49091 15.3675 7.99999C15.3675 7.50907 14.9696 7.11111 14.4786 7.11111H11.528ZM9.16348 10.0741C8.67256 10.0741 8.27459 10.472 8.27459 10.963C8.27459 11.4539 8.67256 11.8518 9.16348 11.8518H14.4784C14.9693 11.8518 15.3673 11.4539 15.3673 10.963C15.3673 10.472 14.9693 10.0741 14.4784 10.0741H9.16348ZM6.50159 13.9259C6.50159 13.435 6.89956 13.037 7.39048 13.037H14.4785C14.9694 13.037 15.3674 13.435 15.3674 13.9259C15.3674 14.4168 14.9694 14.8148 14.4785 14.8148H7.39048C6.89956 14.8148 6.50159 14.4168 6.50159 13.9259ZM7.39048 16.5926C6.89956 16.5926 6.50159 16.9905 6.50159 17.4815C6.50159 17.9724 6.89956 18.3704 7.39048 18.3704H14.4785C14.9694 18.3704 15.3674 17.9724 15.3674 17.4815C15.3674 16.9905 14.9694 16.5926 14.4785 16.5926H7.39048ZM8.27459 20.4445C8.27459 19.9535 8.67256 19.5556 9.16348 19.5556H14.4784C14.9693 19.5556 15.3673 19.9535 15.3673 20.4445C15.3673 20.9354 14.9693 21.3333 14.4784 21.3333H9.16348C8.67256 21.3333 8.27459 20.9354 8.27459 20.4445ZM10.3457 22.5185C9.85481 22.5185 9.45684 22.9165 9.45684 23.4074C9.45684 23.8983 9.85481 24.2963 10.3457 24.2963H14.4785C14.9694 24.2963 15.3674 23.8983 15.3674 23.4074C15.3674 22.9165 14.9694 22.5185 14.4785 22.5185H10.3457ZM20.9804 7.11111C21.4714 7.11111 21.8693 7.50907 21.8693 7.99999C21.8693 8.49091 21.4714 8.88888 20.9804 8.88888H18.0298C17.5389 8.88888 17.1409 8.49091 17.1409 7.99999C17.1409 7.50907 17.5389 7.11111 18.0298 7.11111H20.9804ZM23.3449 10.0741C23.8358 10.0741 24.2338 10.472 24.2338 10.963C24.2338 11.4539 23.8358 11.8518 23.3449 11.8518H18.03C17.5391 11.8518 17.1411 11.4539 17.1411 10.963C17.1411 10.472 17.5391 10.0741 18.03 10.0741H23.3449ZM26.0068 13.9259C26.0068 13.435 25.6088 13.037 25.1179 13.037H18.0299C17.539 13.037 17.141 13.435 17.141 13.9259C17.141 14.4168 17.539 14.8148 18.0299 14.8148H25.1179C25.6088 14.8148 26.0068 14.4168 26.0068 13.9259ZM25.1179 16.5926C25.6088 16.5926 26.0068 16.9905 26.0068 17.4815C26.0068 17.9724 25.6088 18.3704 25.1179 18.3704H18.0299C17.539 18.3704 17.141 17.9724 17.141 17.4815C17.141 16.9905 17.539 16.5926 18.0299 16.5926H25.1179ZM24.2338 20.4445C24.2338 19.9535 23.8358 19.5556 23.3449 19.5556H18.03C17.5391 19.5556 17.1411 19.9535 17.1411 20.4445C17.1411 20.9354 17.5391 21.3333 18.03 21.3333H23.3449C23.8358 21.3333 24.2338 20.9354 24.2338 20.4445ZM22.1627 22.5185C22.6536 22.5185 23.0516 22.9165 23.0516 23.4074C23.0516 23.8983 22.6536 24.2963 22.1627 24.2963H18.0299C17.539 24.2963 17.141 23.8983 17.141 23.4074C17.141 22.9165 17.539 22.5185 18.0299 22.5185H22.1627Z" fill="#10416A"/>
</g>
</g>
<defs>
<clipPath id="clip0_34_2231">
<rect width="164" height="32" fill="white"/>
</clipPath>
</defs>
</svg>