<svg width="32" height="32" viewBox="0 0 32 32" fill="none" xmlns="http://www.w3.org/2000/svg">
<g id="Logo" clip-path="url(#clip0_43_2756)">
<g id="Logo_2">
<path id="Shape" fill-rule="evenodd" clip-rule="evenodd" d="M11.2594 0.592593C11.2594 0.265313 11.5248 0 11.852 0C12.1793 0 12.4446 0.265313 12.4446 0.592592V4.14815H14.2223V0.592593C14.2223 0.265313 14.4876 0 14.8149 0C15.1422 0 15.4075 0.265313 15.4075 0.592592V4.14815H17.1853V0.592593C17.1853 0.265313 17.4506 0 17.7778 0C18.1051 0 18.3704 0.265313 18.3704 0.592593V4.14815H20.1482V0.592593C20.1482 0.265313 20.4135 0 20.7408 0C21.0681 0 21.3334 0.265313 21.3334 0.592592V4.14815H24.652C25.7721 4.14815 26.3321 4.14815 26.7599 4.36614C27.1363 4.55788 27.4422 4.86384 27.634 5.24017C27.852 5.66799 27.852 6.22804 27.852 7.34815V10.6667H31.4074C31.7347 10.6667 32 10.932 32 11.2593C32 11.5865 31.7347 11.8519 31.4074 11.8519H27.852V13.6296H31.4074C31.7347 13.6296 32 13.8949 32 14.2222C32 14.5495 31.7347 14.8148 31.4074 14.8148H27.852V16.5926H31.4074C31.7347 16.5926 32 16.8579 32 17.1852C32 17.5125 31.7347 17.7778 31.4074 17.7778H27.852V19.5556H31.4074C31.7347 19.5556 32 19.8209 32 20.1481C32 20.4754 31.7347 20.7407 31.4074 20.7407H27.852V24.6518C27.852 25.772 27.852 26.332 27.634 26.7598C27.4422 27.1362 27.1363 27.4421 26.7599 27.6339C26.3321 27.8518 25.7721 27.8518 24.652 27.8518H21.3334V31.4074C21.3334 31.7347 21.0681 32 20.7408 32C20.4135 32 20.1482 31.7347 20.1482 31.4074V27.8518H18.3704V31.4074C18.3704 31.7347 18.1051 32 17.7778 32C17.4506 32 17.1853 31.7347 17.1853 31.4074V27.8518H15.4075V31.4074C15.4075 31.7347 15.1422 32 14.8149 32C14.4876 32 14.2223 31.7347 14.2223 31.4074V27.8518H12.4446V31.4074C12.4446 31.7347 12.1793 32 11.852 32C11.5248 32 11.2594 31.7347 11.2594 31.4074V27.8518H7.34826H7.34823C6.22814 27.8518 5.66809 27.8518 5.24027 27.6339C4.86395 27.4421 4.55799 27.1362 4.36624 26.7598C4.14826 26.332 4.14826 25.772 4.14826 24.6518V20.7407H0.592593C0.265313 20.7407 0 20.4754 0 20.1481C0 19.8209 0.265313 19.5556 0.592593 19.5556H4.14826V17.7778H0.592593C0.265313 17.7778 0 17.5125 0 17.1852C0 16.8579 0.265313 16.5926 0.592593 16.5926H4.14826V14.8148H0.592593C0.265313 14.8148 0 14.5495 0 14.2222C0 13.8949 0.265313 13.6296 0.592593 13.6296H4.14826V11.8519H0.592592C0.265313 11.8519 0 11.5865 0 11.2593C0 10.932 0.265313 10.6667 0.592593 10.6667H4.14826V7.34815C4.14826 6.22804 4.14826 5.66799 4.36624 5.24017C4.55799 4.86384 4.86395 4.55788 5.24027 4.36614C5.6681 4.14815 6.22815 4.14815 7.34826 4.14815H11.2594V0.592593ZM11.5556 7.11111C11.0647 7.11111 10.6668 7.50908 10.6668 8C10.6668 8.49092 11.0647 8.88889 11.5556 8.88889H14.5186C15.0095 8.88889 15.4075 8.49092 15.4075 8C15.4075 7.50908 15.0095 7.11111 14.5186 7.11111H11.5556ZM9.18501 10.0741C8.69409 10.0741 8.29612 10.472 8.29612 10.963C8.29612 11.4539 8.69409 11.8519 9.18501 11.8519H14.5183C15.0093 11.8519 15.4072 11.4539 15.4072 10.963C15.4072 10.472 15.0093 10.0741 14.5183 10.0741H9.18501ZM6.5185 13.9259C6.5185 13.435 6.91647 13.037 7.40739 13.037H14.5185C15.0094 13.037 15.4074 13.435 15.4074 13.9259C15.4074 14.4168 15.0094 14.8148 14.5185 14.8148H7.40739C6.91647 14.8148 6.5185 14.4168 6.5185 13.9259ZM7.40739 16.5926C6.91647 16.5926 6.5185 16.9906 6.5185 17.4815C6.5185 17.9724 6.91647 18.3704 7.40739 18.3704H14.5185C15.0094 18.3704 15.4074 17.9724 15.4074 17.4815C15.4074 16.9906 15.0094 16.5926 14.5185 16.5926H7.40739ZM8.29612 20.4444C8.29612 19.9535 8.69409 19.5556 9.18501 19.5556H14.5183C15.0093 19.5556 15.4072 19.9535 15.4072 20.4444C15.4072 20.9354 15.0093 21.3333 14.5183 21.3333H9.18501C8.69409 21.3333 8.29612 20.9354 8.29612 20.4444ZM10.3703 22.5185C9.8794 22.5185 9.48144 22.9165 9.48144 23.4074C9.48144 23.8983 9.8794 24.2963 10.3703 24.2963H14.5185C15.0094 24.2963 15.4074 23.8983 15.4074 23.4074C15.4074 22.9165 15.0094 22.5185 14.5185 22.5185H10.3703ZM21.0373 7.11111C21.5282 7.11111 21.9262 7.50908 21.9262 8C21.9262 8.49092 21.5282 8.88889 21.0373 8.88889H18.0744C17.5834 8.88889 17.1855 8.49092 17.1855 8C17.1855 7.50908 17.5834 7.11111 18.0744 7.11111H21.0373ZM23.408 10.0741C23.8989 10.0741 24.2968 10.472 24.2968 10.963C24.2968 11.4539 23.8989 11.8519 23.408 11.8519H18.0746C17.5837 11.8519 17.1857 11.4539 17.1857 10.963C17.1857 10.472 17.5837 10.0741 18.0746 10.0741H23.408ZM26.0745 13.9259C26.0745 13.435 25.6765 13.037 25.1856 13.037H18.0745C17.5835 13.037 17.1856 13.435 17.1856 13.9259C17.1856 14.4168 17.5835 14.8148 18.0745 14.8148H25.1856C25.6765 14.8148 26.0745 14.4168 26.0745 13.9259ZM25.1856 16.5926C25.6765 16.5926 26.0745 16.9906 26.0745 17.4815C26.0745 17.9724 25.6765 18.3704 25.1856 18.3704H18.0745C17.5835 18.3704 17.1856 17.9724 17.1856 17.4815C17.1856 16.9906 17.5835 16.5926 18.0745 16.5926H25.1856ZM24.2968 20.4444C24.2968 19.9535 23.8989 19.5556 23.408 19.5556H18.0746C17.5837 19.5556 17.1857 19.9535 17.1857 20.4444C17.1857 20.9354 17.5837 21.3333 18.0746 21.3333H23.408C23.8989 21.3333 24.2968 20.9354 24.2968 20.4444ZM22.2226 22.5185C22.7136 22.5185 23.1115 22.9165 23.1115 23.4074C23.1115 23.8983 22.7136 24.2963 22.2226 24.2963H18.0745C17.5836 24.2963 17.1856 23.8983 17.1856 23.4074C17.1856 22.9165 17.5836 22.5185 18.0745 22.5185H22.2226Z" fill="#10416A"/>
</g>
</g>
<defs>
<clipPath id="clip0_43_2756">
<rect width="32" height="32" fill="white"/>
</clipPath>
</defs>
</svg>