<?xml version="1.0" encoding="UTF-8" standalone="no"?>
<svg
   version="1.1"
   id="Capa_1"
   x="0px"
   y="0px"
   width="512px"
   height="512px"
   viewBox="0 0 569.613 569.614"
   style="enable-background:new 0 0 569.613 569.614;"
   xml:space="preserve"
   sodipodi:docname="io.frama.tractor.carburetor.svg"
   inkscape:version="1.2.2 (b0a8486541, 2022-12-01)"
   xmlns:inkscape="http://www.inkscape.org/namespaces/inkscape"
   xmlns:sodipodi="http://sodipodi.sourceforge.net/DTD/sodipodi-0.dtd"
   xmlns:xlink="http://www.w3.org/1999/xlink"
   xmlns="http://www.w3.org/2000/svg"
   xmlns:svg="http://www.w3.org/2000/svg"
   xmlns:rdf="http://www.w3.org/1999/02/22-rdf-syntax-ns#"
   xmlns:cc="http://creativecommons.org/ns#"
   xmlns:dc="http://purl.org/dc/elements/1.1/"><metadata
   id="metadata45"><rdf:RDF><cc:Work
       rdf:about=""><dc:format>image/svg+xml</dc:format><dc:type
         rdf:resource="http://purl.org/dc/dcmitype/StillImage" /></cc:Work></rdf:RDF></metadata><defs
   id="defs43"><linearGradient
   inkscape:collect="always"
   id="linearGradient6987"><stop
     style="stop-color:#c061cb;stop-opacity:1;"
     offset="0"
     id="stop6983" /><stop
     style="stop-color:#813d9c;stop-opacity:1;"
     offset="1"
     id="stop6985" /></linearGradient>
	
	<radialGradient
   inkscape:collect="always"
   xlink:href="#linearGradient6987"
   id="radialGradient9173"
   cx="265.97177"
   cy="171.62091"
   fx="265.97177"
   fy="171.62091"
   r="278.13199"
   gradientUnits="userSpaceOnUse"
   gradientTransform="matrix(-1.0268008,0,0,0.89487903,558.36874,22.634362)" /></defs><sodipodi:namedview
   pagecolor="#ffffff"
   bordercolor="#666666"
   borderopacity="1"
   objecttolerance="10"
   gridtolerance="10"
   guidetolerance="10"
   inkscape:pageopacity="0"
   inkscape:pageshadow="2"
   inkscape:window-width="1920"
   inkscape:window-height="1011"
   id="namedview41"
   showgrid="false"
   inkscape:zoom="0.98798671"
   inkscape:cx="-71.863315"
   inkscape:cy="328.44571"
   inkscape:window-x="0"
   inkscape:window-y="0"
   inkscape:window-maximized="1"
   inkscape:current-layer="Capa_1"
   inkscape:showpageshadow="0"
   inkscape:pagecheckerboard="1"
   inkscape:deskcolor="#d1d1d1"
   showguides="false" />
<path
   id="path4588-3"
   style="fill:#613583;fill-opacity:1;stroke-width:1.09087"
   d="m 212.79656,13.391613 c 1.46179,0.0894 2.92019,0.324456 4.35667,0.706194 1.43578,0.382739 2.82229,0.901887 4.13721,1.551455 1.31497,0.649568 2.55998,1.427872 3.72002,2.318489 1.16002,0.890617 2.23406,1.894895 3.20503,3.000782 0.97098,1.105887 1.84013,2.313818 2.58793,3.609195 l 30.07301,52.073668 c 3.8354,-0.43245 7.68129,-0.759944 11.53378,-0.982153 3.85247,-0.222208 7.71242,-0.340131 11.57289,-0.352011 0.2745,-8.4e-4 0.54901,0.01936 0.82353,0.01956 v 0.536708 c 0.27451,-2.2e-4 0.54903,-0.02046 0.82353,-0.01956 3.86047,0.0119 7.72042,0.1298 11.57289,0.35201 3.85249,0.22221 7.69839,0.549704 11.53378,0.982153 l 30.07301,-52.073667 c 0.7478,-1.295375 1.61695,-2.503309 2.58793,-3.609196 0.97097,-1.105885 2.045,-2.110163 3.20503,-3.000781 1.16003,-0.890627 2.40505,-1.668933 3.72002,-2.31849 1.31492,-0.649568 2.70143,-1.168725 4.13721,-1.551454 1.43648,-0.381749 2.89488,-0.616765 4.35667,-0.706194 1.46179,-0.0894 2.92489,-0.0343 4.36971,0.162968 1.44482,0.197269 2.87109,0.534195 4.25672,1.012573 1.38562,0.478379 2.73136,1.097428 4.01553,1.851315 l 110.40531,64.839485 c 1.33653,0.785147 2.56207,1.687496 3.67221,2.687883 1.11013,1.000397 2.10399,2.098168 2.97688,3.272395 0.11539,0.155225 0.18656,0.335355 0.29768,0.493249 2.34023,-0.0035 1.78715,0.0015 4.18285,-0.0022 2.5e-4,13.348603 -0.004,-4.39e-4 0,13.350323 0.096,1.44729 0.009,1.14547 -0.17601,2.60097 -0.1846,1.4555 -0.51474,2.90178 -0.99084,4.32408 -0.4761,1.42229 -1.09896,2.81777 -1.87739,4.16546 l -30.04476,52.015 c 2.3246,3.1918 4.53598,6.40931 6.64039,9.66943 2.10449,3.26004 4.10352,6.56287 6.01026,9.92148 1.90624,3.35919 3.71603,6.76866 5.43878,10.24959 1.72278,3.48102 3.35875,7.03493 4.91294,10.67766 l 59.70708,0.23033 c 1.54712,0.006 3.05546,0.16925 4.51313,0.47586 1.45765,0.30663 2.86191,0.75527 4.20022,1.33199 1.33833,0.57677 2.61133,1.28246 3.80041,2.09903 1.18909,0.81657 2.29722,1.74459 3.30717,2.77045 1.00994,1.02592 1.92175,2.14791 2.72265,3.3528 0.8009,1.2049 1.48926,2.49475 2.05122,3.84821 0.56196,1.35345 0.99758,2.77207 1.2907,4.24369 0.29312,1.47153 0.44455,2.99511 0.43893,4.5544 l -0.46935,128.80764 c -0.006,1.49795 -0.15944,2.98147 -0.45196,4.42838 -0.29253,1.44694 -0.72562,2.85714 -1.28853,4.21326 -0.56293,1.35611 -1.2559,2.65744 -2.07296,3.88298 -0.81706,1.22552 -1.75681,2.37586 -2.81173,3.43102 -1.04956,1.05072 -2.19016,1.98472 -3.40495,2.79653 -1.21479,0.81182 -2.50468,1.50069 -3.84604,2.05774 -1.34135,0.55707 -2.7362,0.98262 -4.16546,1.26897 -1.42927,0.28645 -2.8912,0.43459 -4.36971,0.43459 h -0.0847 l -59.76793,-0.22381 c -1.57029,3.55699 -3.23509,7.06329 -4.99333,10.52338 -1.75824,3.45999 -3.61223,6.87081 -5.55612,10.23003 -1.94392,3.35931 -3.9786,6.66887 -6.10587,9.92366 -2.12728,3.2548 -4.34507,6.45552 -6.65343,9.60207 l 32.65442,50.61347 c 0.002,13.35548 0.003,0.003 0,13.35033 -0.045,1.12457 4.6e-4,-3.5e-4 -0.0456,1.11905 -0.0607,1.47484 -0.34094,2.94331 -0.7301,4.38926 -0.38988,1.44528 -0.91937,2.83578 -1.57318,4.15677 -0.6538,1.32096 -1.43318,2.5726 -2.32501,3.73522 -0.89184,1.16272 -1.89678,2.23892 -3.00078,3.20939 -1.10399,0.97041 -2.30589,1.83493 -3.59616,2.57923 l -110.87248,63.9725 c -1.75584,1.01209 -3.59104,1.75789 -5.45834,2.25113 -1.86733,0.49325 -3.77008,0.73444 -5.65824,0.73444 -1.94385,0 -3.87207,-0.25739 -5.73864,-0.754 -1.86665,-0.4966 -3.67105,-1.23305 -5.36056,-2.19898 -1.68952,-0.96594 -3.26366,-2.15988 -4.67609,-3.56791 -1.41242,-1.40802 -2.66287,-3.03144 -3.69829,-4.85427 l -29.70361,-52.32572 c -3.8571,0.41128 -7.71858,0.71536 -11.58158,0.91479 -3.57608,0.18461 -7.15213,0.2572 -10.72546,0.26075 -3.57333,-0.004 -7.14938,-0.0761 -10.72546,-0.26075 -3.863,-0.19943 -7.72448,-0.50351 -11.58158,-0.91479 l -29.70361,52.32572 c -1.03542,1.82283 -2.28587,3.44625 -3.69829,4.85427 -1.41243,1.40803 -2.98657,2.60197 -4.67609,3.56791 -1.6895,0.96593 -3.49392,1.70238 -5.36056,2.19898 -1.86657,0.49661 -3.79479,0.754 -5.73864,0.754 -1.88816,0 -3.7909,-0.24119 -5.65824,-0.73444 -1.8673,-0.49324 -3.7025,-1.23904 -5.45834,-2.25113 L 91.333344,502.65593 c -1.29021,-0.7443 -2.49215,-1.60882 -3.59615,-2.57923 -1.10401,-0.97047 -2.109,-2.04667 -3.00078,-3.20939 -0.89184,-1.16262 -1.6712,-2.41426 -2.32501,-3.73522 -0.65381,-1.32099 -1.1833,-2.71149 -1.57319,-4.15677 -0.38916,-1.44595 -0.66939,-2.91442 -0.73009,-4.38926 -0.0461,-1.1194 -6.6e-4,0.006 -0.04563,-1.11905 -0.003,-13.34726 -0.001,0.005 0,-13.35033 l 30.118626,-46.68486 2.36847,-4.16981 c -2.24592,-3.07013 -4.4123,-6.18786 -6.48612,-9.36087 -2.12727,-3.25479 -4.16195,-6.56435 -6.105866,-9.92366 -1.94384,-3.35922 -3.79793,-6.77004 -5.55611,-10.23003 -1.75825,-3.46009 -3.42303,-6.96639 -4.99334,-10.52338 l -59.76792,0.22381 h -0.08475 c -1.47851,0 -2.94043,-0.14814 -4.36971,-0.43459 -1.42927,-0.28635 -2.82409,-0.7119 -4.16546,-1.26897 -1.34136,-0.55705 -2.63124,-1.24592 -3.84604,-2.05774 -1.21479,-0.81181 -2.35538,-1.74581 -3.40494,-2.79653 -1.05493,-1.05516 -1.99467,-2.2055 -2.81174,-3.43102 -0.81706,-1.22554 -1.5100196,-2.52687 -2.0729496,-3.88298 -0.56291,-1.35612 -0.996,-2.76632 -1.28853,-4.21326 -0.29252,-1.44691 -0.44597,-2.93043 -0.45197,-4.42838 l -0.46935,-128.80764 c -2e-5,-0.007 0.0022,-0.0128 0.00218,-0.0195 l -0.00218,-0.51715 c -0.006,-1.55936 0.1458,-3.0828 0.43893,-4.55441 0.29311,-1.47161 0.72875,-2.89027 1.29071,-4.24369 0.56197,-1.35345 1.25032,-2.64332 2.0512196,-3.84821 0.80092,-1.20489 1.71271,-2.32687 2.72265,-3.35279 1.00995,-1.02593 2.11806,-1.95391 3.30716,-2.77046 1.18909,-0.81657 2.46207,-1.52225 3.80041,-2.09902 1.33833,-0.57679 2.74256,-1.02536 4.20023,-1.33199 1.45765,-0.3066 2.96601,-0.46987 4.51312,-0.47587 l 59.70708,-0.23033 c 1.5542,-3.64268 3.19016,-7.19665 4.91294,-10.67765 1.72278,-3.48101 3.53253,-6.89045 5.43878,-10.2496 1.906736,-3.35868 3.905766,-6.66136 6.010256,-9.92148 2.05114,-3.17751 4.21292,-6.31169 6.47308,-9.42389 L 81.663924,112.68685 c -0.77844,-1.34769 -1.40129,-2.74317 -1.87739,-4.16546 -0.4761,-1.4223 -0.80625,-2.86858 -0.99085,-4.32408 -0.185,-1.4555 -0.272,-1.15368 -0.176,-2.60097 0.004,-13.350763 -2.5e-4,-0.002 0,-13.350323 2.2115,0.0034 1.69703,-0.0011 3.86125,0.0022 0.22211,-0.335164 0.37857,-0.706154 0.61928,-1.029956 0.87289,-1.174225 1.86674,-2.271998 2.97688,-3.272395 1.11014,-1.000387 2.33566,-1.902737 3.67221,-2.687884 L 200.1546,16.41847 c 1.28417,-0.753898 2.62991,-1.372927 4.01553,-1.851315 1.38564,-0.478379 2.8119,-0.815304 4.25672,-1.012574 1.44482,-0.19727 2.90793,-0.252408 4.36971,-0.162968 z m 72.01007,102.867497 v 44.50109 c 9.71351,0 19.1363,1.17146 28.24559,3.18113 a 130.7219,130.72197 0 0 1 1.82741,0.4411 c 9.07766,2.1412 17.79233,5.18474 26.02923,9.10882 a 130.7219,130.72197 0 0 1 0.95391,0.42589 c 8.48761,4.12728 16.4374,9.15219 23.77592,14.9409 a 130.7219,130.72197 0 0 1 1.46889,1.219 c 7.04491,5.72522 13.4796,12.14657 19.19761,19.19761 a 130.7219,130.72197 0 0 1 1.03648,1.23421 c 5.79602,7.3294 10.7996,15.29226 14.93655,23.77158 a 130.7219,130.72197 0 0 1 0.58234,1.27767 c 3.89232,8.20101 6.93407,16.86238 9.06101,25.89451 a 130.7219,130.72197 0 0 1 0.41068,1.6601 c 1.0904,4.92068 2.00201,9.90709 2.52057,15.01912 h 0.67577 v 13.35032 c 0,9.80236 -1.16597,19.31807 -3.21155,28.50417 a 130.7219,130.72197 0 0 1 -0.3846,1.49496 c -2.10648,8.95466 -5.14017,17.52949 -8.98279,25.66853 a 130.7219,130.72197 0 0 1 -0.96043,1.99472 c -4.0372,8.18739 -8.86358,15.89504 -14.45416,23.00455 a 130.7219,130.72197 0 0 1 -0.92349,1.23421 c -5.90435,7.3299 -12.5739,13.99945 -19.90381,19.90381 a 130.7219,130.72197 0 0 1 -1.23421,0.92348 c -7.1095,5.59058 -14.81715,10.41697 -23.00454,14.45417 a 130.7219,130.72197 0 0 1 -1.99473,0.96042 c -8.13904,3.84263 -16.71387,6.87631 -25.66852,8.98279 a 130.7219,130.72197 0 0 1 -1.49496,0.3846 c -9.18611,2.04558 -18.70181,3.21156 -28.50417,3.21156 v 36.7134 7.78769 a 175.22296,175.22305 0 0 0 97.10278,-29.39723 c 0.10719,-0.0715 0.22325,-0.13033 0.33028,-0.20208 a 175.22296,175.22305 0 0 0 26.46815,-21.72253 175.22296,175.22305 0 0 0 21.72254,-26.46816 c 0.0718,-0.10703 0.13055,-0.22308 0.20208,-0.33028 a 175.22296,175.22305 0 0 0 29.39723,-97.10278 175.22296,175.22305 0 0 0 -29.39723,-97.10277 c -0.0715,-0.1072 -0.13033,-0.22325 -0.20208,-0.33028 a 175.22296,175.22305 0 0 0 -21.72254,-26.46816 175.22296,175.22305 0 0 0 -26.46815,-21.72253 c -0.10703,-0.0718 -0.22309,-0.13056 -0.33028,-0.20208 a 175.22296,175.22305 0 0 0 -97.10278,-29.39723 z m 0,89.00218 v 44.5011 a 41.719755,41.719776 0 0 1 39.06449,28.36945 h 2.65311 v 13.33946 a 41.719755,41.719776 0 0 1 0.002,0.0109 c 0,5.6475 -1.13461,11.02574 -3.1681,15.93826 a 41.719755,41.719776 0 0 1 -0.0174,0.0435 c -2.11028,5.08184 -5.1875,9.66021 -9.01539,13.49374 a 41.719755,41.719776 0 0 1 -0.0435,0.0435 c -3.83353,3.82789 -8.4119,6.90511 -13.49374,9.01538 a 41.719755,41.719776 0 0 1 -0.0435,0.0174 c -4.91253,2.03349 -10.29076,3.1681 -15.93826,3.1681 v 44.50109 a 86.220828,86.220871 0 0 0 21.64865,-2.85085 c 0.39962,-0.10354 0.8021,-0.19945 1.19945,-0.30855 a 86.220828,86.220871 0 0 0 19.86035,-8.22445 c 0.30157,-0.17249 0.58945,-0.36503 0.88872,-0.54105 a 86.220828,86.220871 0 0 0 17.3702,-13.3286 86.220828,86.220871 0 0 0 13.3286,-17.3702 c 0.17602,-0.29927 0.36856,-0.58715 0.54105,-0.88872 a 86.220828,86.220871 0 0 0 8.22445,-19.86035 c 0.1091,-0.39734 0.20501,-0.79983 0.30855,-1.19944 a 86.220828,86.220871 0 0 0 2.85085,-21.64866 86.220828,86.220871 0 0 0 -2.85085,-21.64865 c -0.10354,-0.39961 -0.19945,-0.8021 -0.30855,-1.19944 a 86.220828,86.220871 0 0 0 -8.22445,-19.86035 c -0.17249,-0.30157 -0.36503,-0.58945 -0.54105,-0.88872 A 86.220828,86.220871 0 0 0 345.774,230.5148 86.220828,86.220871 0 0 0 328.4038,217.1862 c -0.29927,-0.17602 -0.58715,-0.36856 -0.88872,-0.54106 a 86.220828,86.220871 0 0 0 -19.86035,-8.22444 c -0.39735,-0.10911 -0.79983,-0.20501 -1.19945,-0.30855 a 86.220828,86.220871 0 0 0 -21.64865,-2.85086 z" /><path
   id="path4588"
   style="opacity:1;mix-blend-mode:normal;fill:url(#radialGradient9173);fill-opacity:1;fill-rule:nonzero;stroke-width:1.09087"
   d="m 212.79664,0.04157011 c 1.46179,0.08939982 2.92018,0.32445488 4.35667,0.70619412 1.43578,0.38273917 2.82228,0.90188537 4.13721,1.55145417 1.31497,0.6495686 2.55998,1.4278712 3.72002,2.3184896 1.16003,0.8906182 2.23406,1.8948939 3.20503,3.0007817 0.97098,1.1058878 1.84013,2.3138176 2.58793,3.6091953 l 30.07301,52.073668 c 3.83541,-0.43245 7.68129,-0.759944 11.53378,-0.982154 3.85248,-0.222208 7.71242,-0.34013 11.57289,-0.35201 0.2745,-8.4e-4 0.54901,0.01936 0.82353,0.01956 v 0.536708 c 0.27452,-2.2e-4 0.54903,-0.02046 0.82353,-0.01956 3.86047,0.0119 7.72041,0.129801 11.57289,0.352011 3.85249,0.22221 7.69837,0.549703 11.53378,0.982153 l 30.07301,-52.073669 c 0.7478,-1.295376 1.61695,-2.503307 2.58793,-3.6091948 0.97097,-1.1058876 2.045,-2.1101635 3.20503,-3.0007817 1.16004,-0.8906282 2.40505,-1.668931 3.72002,-2.3184896 1.31493,-0.6495688 2.70143,-1.1687248 4.13721,-1.5514542 1.43649,-0.38174916 2.89488,-0.61676424 4.35667,-0.70619406 1.46179,-0.0893998 2.92489,-0.0343017 4.36971,0.16296787 1.44482,0.19726962 2.87108,0.53419469 4.25672,1.01257369 1.38562,0.478379 2.73136,1.0974266 4.01553,1.851315 L 479.86401,68.444619 c 1.33654,0.785148 2.56206,1.687495 3.6722,2.687883 1.11014,1.000398 2.10399,2.098167 2.97687,3.272395 0.87289,1.174228 1.62417,2.426393 2.24896,3.733051 0.62478,1.306646 1.12476,2.667827 1.4906,4.065505 0.36585,1.397676 0.59929,2.828989 0.69533,4.276277 0.096,1.447286 0.0542,2.912041 -0.13037,4.367539 -0.1846,1.455496 -0.51475,2.901783 -0.99085,4.324081 -0.47608,1.422286 -1.09895,2.817781 -1.87738,4.165459 l -30.0447,52.014991 c 2.32464,3.1918 4.53594,6.40931 6.64038,9.66943 2.10449,3.26012 4.10353,6.56282 6.01025,9.92148 1.90624,3.35918 3.71601,6.76859 5.43878,10.2496 1.72276,3.48098 3.35873,7.03496 4.91292,10.67765 l 59.70695,0.23033 c 1.54711,0.006 3.05544,0.16927 4.51311,0.47587 1.45767,0.30663 2.8619,0.7552 4.20022,1.33199 1.33832,0.57677 2.61132,1.28245 3.8004,2.09902 1.18908,0.81658 2.29721,1.74453 3.30715,2.77046 1.00995,1.02592 1.92175,2.1479 2.72265,3.35279 0.8009,1.20489 1.48925,2.49475 2.05122,3.84821 0.56196,1.35345 0.99758,2.77208 1.2907,4.24369 0.29312,1.47161 0.44454,2.99505 0.43892,4.55441 l -0.46934,128.80763 c -0.006,1.49795 -0.15944,2.98148 -0.45196,4.42838 -0.29253,1.44694 -0.72561,2.85714 -1.28854,4.21326 -0.56292,1.35612 -1.25589,2.65745 -2.07294,3.88298 -0.81706,1.22552 -1.75681,2.37586 -2.81173,3.43102 -1.04956,1.05073 -2.19015,1.98471 -3.40494,2.79653 -1.21479,0.81182 -2.50467,1.50069 -3.84603,2.05774 -1.34136,0.55708 -2.73619,0.98254 -4.16545,1.26898 -1.42927,0.28644 -2.8912,0.43458 -4.3697,0.43458 h -0.0847 l -59.76779,-0.22381 c -1.5703,3.55704 -3.23508,7.0633 -4.99333,10.52338 -1.75824,3.46003 -3.61221,6.87077 -5.5561,10.23003 -1.9439,3.35932 -3.97859,6.66888 -6.10586,9.92366 -2.12727,3.2548 -4.34506,6.45553 -6.65342,9.60207 l 29.69921,52.32138 c 0.73802,1.3006 1.34143,2.65888 1.80568,4.05898 0.46424,1.4001 0.78834,2.84051 0.97346,4.29801 0.18511,1.4576 0.22971,2.93168 0.13037,4.40448 -0.0994,1.4728 -0.34093,2.94327 -0.73009,4.38927 -0.38989,1.44518 -0.91938,2.83586 -1.57319,4.15676 -0.6538,1.321 -1.43316,2.57253 -2.32499,3.73523 -0.89185,1.1627 -1.89679,2.23888 -3.00078,3.20938 -1.104,0.9704 -2.30588,1.83494 -3.59615,2.57924 l -110.87248,63.97249 c -1.75584,1.0121 -3.59104,1.75793 -5.45834,2.25113 -1.86733,0.4933 -3.77008,0.73444 -5.65824,0.73444 -1.94385,0 -3.87203,-0.2574 -5.73864,-0.754 -1.86665,-0.4966 -3.67105,-1.23308 -5.36056,-2.19898 -1.68952,-0.966 -3.26366,-2.15991 -4.67609,-3.56791 -1.41242,-1.40798 -2.66069,-3.03147 -3.69611,-4.85427 l -29.70579,-52.32572 c -3.85714,0.4112 -7.71858,0.71529 -11.58158,0.91479 -3.57608,0.1846 -7.15213,0.25725 -10.72546,0.26075 v -0.53671 c -3.57333,0 -7.14938,-0.076 -10.72546,-0.26074 -3.863,-0.1995 -7.72444,-0.5036 -11.58158,-0.9148 l -29.70579,52.32573 c -1.03542,1.8228 -2.28369,3.44627 -3.69611,4.85427 -1.41243,1.408 -2.98657,2.60191 -4.67609,3.56791 -1.68951,0.9659 -3.49391,1.70238 -5.36056,2.19898 -1.86661,0.4966 -3.79479,0.75399 -5.73864,0.75399 -1.88815,0 -3.79091,-0.24114 -5.65824,-0.73444 -1.8673,-0.4932 -3.7025,-1.23903 -5.45834,-2.25113 L 91.333384,488.76918 c -1.29025,-0.7443 -2.49215,-1.60874 -3.59615,-2.57924 -1.10403,-0.9704 -2.10899,-2.04668 -3.0008,-3.20938 -0.89185,-1.1627 -1.6712,-2.41424 -2.32502,-3.73522 -0.65381,-1.3209 -1.1833,-2.71157 -1.57319,-4.15677 -0.38916,-1.4461 -0.63079,-2.91647 -0.73009,-4.38927 -0.0993,-1.4728 -0.0547,-2.94688 0.13037,-4.40448 0.18512,-1.4575 0.50921,-2.89792 0.97346,-4.298 0.46424,-1.4001 1.06766,-2.75839 1.8057,-4.05899 l 29.699316,-52.32138 c -2.30836,-3.14654 -4.52615,-6.34727 -6.65344,-9.60207 -2.12727,-3.25475 -4.16198,-6.56436 -6.105876,-9.92365 -1.94388,-3.35929 -3.79789,-6.76998 -5.55612,-10.23004 -1.75825,-3.46008 -3.42304,-6.96631 -4.99335,-10.52338 l -59.76806,0.22381 h -0.0847 c -1.47852,0 -2.94045,-0.14814 -4.36972,-0.43458 -1.42928,-0.28644 -2.8241,-0.7119 -4.16547,-1.26898 -1.34138,-0.55705 -2.63125,-1.24592 -3.84605,-2.05774 -1.21479,-0.81182 -2.35539,-1.7458 -3.40495,-2.79653 -1.05493,-1.05516 -1.99467,-2.20552 -2.81175,-3.43101 -0.81706,-1.22553 -1.5100196,-2.52687 -2.0729496,-3.88299 -0.56292,-1.35609 -0.996,-2.76632 -1.28853,-4.21326 -0.29252,-1.4469 -0.44597,-2.93043 -0.45197,-4.42838 l -0.46936,-128.80763 c -0.006,-1.55936 0.14581,-3.0828 0.43894,-4.55441 0.29312,-1.47161 0.72875,-2.89026 1.29071,-4.24368 0.56197,-1.35346 1.25032,-2.64333 2.0512196,-3.84822 0.80092,-1.20489 1.71272,-2.32687 2.72266,-3.35279 1.00995,-1.02593 2.11807,-1.9539 3.30717,-2.77045 1.18909,-0.81657 2.46208,-1.52226 3.80042,-2.09903 1.33833,-0.57679 2.74256,-1.02536 4.20023,-1.33199 1.45766,-0.3066 2.96602,-0.46987 4.51313,-0.47587 l 59.70723,-0.23033 c 1.5542,-3.64269 3.19017,-7.19664 4.91295,-10.67765 1.72278,-3.48101 3.53254,-6.89044 5.43879,-10.24959 1.906736,-3.35869 3.905776,-6.66137 6.010266,-9.92149 2.10446,-3.26009 4.31576,-6.47765 6.6404,-9.66942 L 81.663984,98.800101 c -0.77843,-1.347678 -1.4013,-2.743161 -1.87739,-4.165459 -0.4761,-1.422286 -0.80625,-2.868583 -0.99085,-4.324081 -0.18457,-1.455496 -0.22637,-2.920251 -0.13037,-4.367539 0.096,-1.447286 0.32948,-2.878609 0.69533,-4.276277 0.36584,-1.397676 0.86582,-2.758847 1.49061,-4.065505 0.62479,-1.306658 1.37607,-2.558823 2.24897,-3.733051 0.87289,-1.174226 1.86674,-2.271996 2.97688,-3.272394 1.11016,-1.000388 2.33568,-1.902736 3.67223,-2.687884 L 200.15468,3.0684267 c 1.28417,-0.7538984 2.62991,-1.372926 4.01553,-1.851315 1.38564,-0.47837908 2.8119,-0.81530411 4.25672,-1.01257371 1.44482,-0.19726961 2.90793,-0.2524077 4.36971,-0.16296788 z M 284.80671,102.90906 v 44.50109 A 130.72197,130.72197 0 0 1 415.52867,278.13212 130.72197,130.72197 0 0 1 284.80671,408.85408 v 44.50109 A 175.22305,175.22305 0 0 0 460.02977,278.13212 175.22305,175.22305 0 0 0 284.80671,102.90906 Z m 0,89.00219 v 44.50109 a 41.719776,41.719776 0 0 1 41.71978,41.71978 41.719776,41.719776 0 0 1 -41.71978,41.71977 v 44.5011 a 86.220871,86.220871 0 0 0 86.22087,-86.22087 86.220871,86.220871 0 0 0 -86.22087,-86.22087 z" />

</svg>
